<svg xmlns="http://www.w3.org/2000/svg" xmlns:xlink="http://www.w3.org/1999/xlink" width="369" height="199" viewBox="0 0 369 199"><defs><style>.a{clip-path:url(#b);}.b{fill:#063da6;}</style><clipPath id="b"><rect width="369" height="199"></rect></clipPath></defs><g id="a" class="a"><g transform="translate(-198.198 -1020.144)"><path class="b" d="M534.043,1118.12a14.428,14.428,0,0,1-2.32-3.437,20.039,20.039,0,0,1-1.2-3.008,1.22,1.22,0,0,0-1.2-.859,1.064,1.064,0,0,0-1.2,1.2,86.072,86.072,0,0,1-1.633,11.256,53.33,53.33,0,0,1-3.351,10.912,13.168,13.168,0,0,1-1.117,1.375,2.738,2.738,0,0,1-2.149.859,3.112,3.112,0,0,1-2.233-1.031,8.46,8.46,0,0,1-1.719-4.812,55.565,55.565,0,0,1-.258-7.133,72.619,72.619,0,0,1,.6-7.819q.515-3.953.859-6.875a5.4,5.4,0,0,0-4.3-6.359l-1.718-.344a2.859,2.859,0,0,0-2.578.516,3.227,3.227,0,0,0-1.546,2.235,18.925,18.925,0,0,0-.687,3.866q-.348,3.009-.687,6.96-.689,3.094-1.72,7.3t-2.406,8.678q-1.377,4.472-3.093,8.852a67.311,67.311,0,0,1-3.609,7.819l-.344.344a8.133,8.133,0,0,1-1.031,1.633,5.165,5.165,0,0,1-1.2,1.03,2.055,2.055,0,0,1-1.547.259,2.184,2.184,0,0,1-1.031-1.032q-1.377-2.062-1.977-7.219a89.8,89.8,0,0,1-.429-12.373,127.306,127.306,0,0,1,1.46-15.811,136.255,136.255,0,0,1,3.867-17.531,6.486,6.486,0,0,0,0-4.64,7.891,7.891,0,0,0-2.751-3.609l-2.406-1.718a3.723,3.723,0,0,0-3.437-.689,3.612,3.612,0,0,0-2.406,2.407,83.607,83.607,0,0,0-2.836,8.764q-1.288,4.815-2.32,9.968t-1.632,10.4q-.295,2.55-.483,5a43.424,43.424,0,0,1-14.728,4.713,25.275,25.275,0,0,1-9.28-.344,39.824,39.824,0,0,0,1.89-7.82,41.707,41.707,0,0,0,.344-7.475,23.662,23.662,0,0,0-3.008-11,14.062,14.062,0,0,0-18.646-5.5q-5.5,2.926-9.883,9.882a66.76,66.76,0,0,0-7.3,17.1c-.079.294-.136.574-.208.865q-4.124,7.742-7.268,13.228-3.35,5.845-7.648,12.116a73.253,73.253,0,0,1-8.421,10.4h-.171c-.8.457-1.547.86-2.235,1.2a9.123,9.123,0,0,1-2.062.515,3.12,3.12,0,0,1-2.235-.515,7.019,7.019,0,0,1-2.664-3.093,22.579,22.579,0,0,1-1.891-7.648,95.262,95.262,0,0,1-.257-14.006q.3-7.7,1.931-19.118a86.163,86.163,0,0,0,7.669-10.143q4.21-6.356,8.25-13.748c2.69-4.924,6.039-13.648,8.445-19.036s4.469-10.6,6.188-15.639a101.446,101.446,0,0,0,3.781-14.008,29.854,29.854,0,0,0,.344-10.911l-.171-.173a8.188,8.188,0,0,0-4.64-6.7,9.89,9.89,0,0,0-9.11.343q-4.813,2.579-9.452,9.969a104.451,104.451,0,0,0-8.85,18.561,220.448,220.448,0,0,0-7.734,25.694q-3.525,14.525-6.1,31.366c-.552,3.652-.42,4.934-1.36,6.379-11.276,10.812-37.8,19.056-38.716,19.056.228-1.375.486-2.775.773-4.211s.6-2.835.945-4.211q.685-3.777,1.375-7.131t1.375-6.446v-.172A80.769,80.769,0,0,0,344.36,1106a100.6,100.6,0,0,0,10.483-13.234q1.547-2.234,3.351-5.329a64.6,64.6,0,0,0,3.351-6.615,53.943,53.943,0,0,0,2.578-7.219,22.37,22.37,0,0,0,.86-7.132l-.516-1.031a8.885,8.885,0,0,0-3.953-7.734,10.887,10.887,0,0,0-10.054-1.891q-5.587,1.547-10.226,7.561-7.048,9.113-12.631,26.3a240.985,240.985,0,0,0-8.852,39.7q-1.012,6.183-1.782,11.711a107.525,107.525,0,0,1-41.858-1.194,31.217,31.217,0,1,0-14.567-1.475,108.982,108.982,0,0,0,38.52,6.976,110.6,110.6,0,0,0,17.509-1.4q-1.269,9.59-1.774,17.092a151.424,151.424,0,0,0-.172,21.483,46.408,46.408,0,0,0,2.835,13.835,29.6,29.6,0,0,0,5.071,8.422q5.325,5.84,11.858,5.843a16.293,16.293,0,0,0,3.953-.515,13.919,13.919,0,0,0,4.21-2.407,14.827,14.827,0,0,0,3.695-4.554,25.565,25.565,0,0,0,2.407-6.789,38.531,38.531,0,0,0,.687-9.281q-1.379-31.448-17.874-46.745c1.144-.114,19.994-6.43,35.882-17.148-1.186,13.687-.534,28.053,1.961,35.021a13.19,13.19,0,0,0,3.351,5.156,12.547,12.547,0,0,0,3.867,2.406,15.254,15.254,0,0,0,4.812.86,11.033,11.033,0,0,0,4.984-1.032,29.5,29.5,0,0,0,5.328-4.125,69.97,69.97,0,0,0,8.679-10.4q4.381-6.274,7.819-12.2,2.458-4.243,4.3-7.643a25.3,25.3,0,0,0,.856,6.7,17.466,17.466,0,0,0,2.406,5.327,21.552,21.552,0,0,0,3.266,3.782,13.877,13.877,0,0,0,9.109,3.266,14.057,14.057,0,0,0,6.359-1.547,23.8,23.8,0,0,0,8.937-7.39,42.671,42.671,0,0,0,6.015-11,28.36,28.36,0,0,0,3.093.517,29.8,29.8,0,0,0,3.266.171,38.5,38.5,0,0,0,7.39-.859,42.541,42.541,0,0,0,10.141-3.524l.789-.411c-.04.746-.076,1.486-.1,2.216q-.17,4.3.087,8.936a46.738,46.738,0,0,0,1.288,8.765,24.171,24.171,0,0,0,3.008,7.219,11.5,11.5,0,0,0,5.07,4.468q.858.342,1.462.516a5.434,5.434,0,0,0,1.46.171,7.314,7.314,0,0,0,3.437-1.03,18.3,18.3,0,0,0,6.015-6.187q.858-1.547,1.031-1.546v-.174a73.516,73.516,0,0,0,4.9-11.085q2.148-6.1,3.695-11.943a41.775,41.775,0,0,0,1.375,7.647,17.271,17.271,0,0,0,2.922,6.1,8.951,8.951,0,0,0,6.875,3.263,6.928,6.928,0,0,0,5.585-2.922,27.6,27.6,0,0,0,3.953-7.046A47.629,47.629,0,0,0,528.63,1125q.858-4.552,1.375-7.992C531.149,1118.837,535.015,1119.21,534.043,1118.12Zm-151.951-11.47a377.29,377.29,0,0,1,8.445-37.94,156.1,156.1,0,0,1,7.82-21.568q3.779-7.994,7.046-11.172t5.328-3.18a1.532,1.532,0,0,1,1.891,1.2,29.056,29.056,0,0,1-.345,9.8,94.842,94.842,0,0,1-3.265,12.718,151.132,151.132,0,0,1-5.5,14.265c-2.177,4.928-4.468,11.842-6.874,16.538s-5.7,10.573-8.275,14.7a111.009,111.009,0,0,1-7.3,10.483Zm-40.225-22.043a88.272,88.272,0,0,1,6.875-15.21q3.177-5.156,5.671-6.531a7.33,7.33,0,0,1,4.039-1.2h.172a4.587,4.587,0,0,1,2.061,1.376,4.411,4.411,0,0,1,1.376,2.234,1.387,1.387,0,0,0,.344,1.03,27.366,27.366,0,0,1-2.32,11,74.725,74.725,0,0,1-6.531,12.46,106.356,106.356,0,0,1-9.109,12.116,86.388,86.388,0,0,1-10.054,9.967A217.519,217.519,0,0,1,341.867,1084.607Zm-73.326,14.385h6.877l3.3,5.2,3.325-5.2H289l-6.507,9.521,7.1,10.4h-7.1l-3.78-5.684-3.723,5.684h-6.9l7.047-10.147Zm-10.432,19.923H252.2v-19.923h15.461v4.548H258.11v3.979h8.866v4.547H258.11Zm88.656,68.037a29.251,29.251,0,0,1-.344,7.905,18.763,18.763,0,0,1-2.235,6.015q-3.439,5.157-8.077,3.1-2.924-1.723-5.413-6.7a43.609,43.609,0,0,1-3.7-12.719,128.649,128.649,0,0,1-.687-19.335,198.086,198.086,0,0,1,2.406-23.972Q345.389,1155.671,346.766,1186.951Zm96.018-49.152a26.849,26.849,0,0,1-5.757,6.358q-4.3,3.266-8.25.515-2.924-1.89-4.468-7.3t.86-14.7a36.256,36.256,0,0,1,6.015-13.061,22.814,22.814,0,0,0,1.288,5.672,26.623,26.623,0,0,0,14.007,14.093.693.693,0,0,0,.516.171A42.975,42.975,0,0,1,442.784,1137.8Zm6.875-17.96a47.368,47.368,0,0,1-1.8,7.3.687.687,0,0,1-.516-.173q-3.955-1.545-5.844-6.358a19.471,19.471,0,0,1-1.289-5.584,37.757,37.757,0,0,1-.084-5.673,38.778,38.778,0,0,1,.6-4.9,27.606,27.606,0,0,1,.773-3.267,3.9,3.9,0,0,1,1.2-.171q3.778-.516,5.328,3.267a19.448,19.448,0,0,1,1.46,4.467,21.337,21.337,0,0,1,.43,3.953A27.424,27.424,0,0,1,449.659,1119.839Z" transform="translate(0 0)"></path></g></g></svg>